<mxfile host="app.diagrams.net" modified="2022-08-21T19:53:28.029Z" agent="5.0 (Windows NT 10.0; Win64; x64) AppleWebKit/537.36 (KHTML, like Gecko) Chrome/104.0.5112.102 Safari/537.36" etag="SF57w_kf--NvUQAgBp3N" version="20.2.5" type="github">
  <diagram id="qePzCRr-5KRNLpD6arkn" name="Page-1">
    <mxGraphModel dx="1100" dy="637" grid="1" gridSize="10" guides="1" tooltips="1" connect="1" arrows="1" fold="1" page="1" pageScale="1" pageWidth="827" pageHeight="1169" math="0" shadow="0">
      <root>
        <mxCell id="0" />
        <mxCell id="1" parent="0" />
        <mxCell id="Uc5iMwLWSerUSL70K_aO-13" value="" style="edgeStyle=orthogonalEdgeStyle;rounded=0;orthogonalLoop=1;jettySize=auto;html=1;" edge="1" parent="1" source="Uc5iMwLWSerUSL70K_aO-1" target="Uc5iMwLWSerUSL70K_aO-2">
          <mxGeometry relative="1" as="geometry" />
        </mxCell>
        <mxCell id="Uc5iMwLWSerUSL70K_aO-1" value="start" style="ellipse;whiteSpace=wrap;html=1;" vertex="1" parent="1">
          <mxGeometry x="250" y="30" width="120" height="80" as="geometry" />
        </mxCell>
        <mxCell id="Uc5iMwLWSerUSL70K_aO-12" value="" style="edgeStyle=orthogonalEdgeStyle;rounded=0;orthogonalLoop=1;jettySize=auto;html=1;" edge="1" parent="1" source="Uc5iMwLWSerUSL70K_aO-2" target="Uc5iMwLWSerUSL70K_aO-4">
          <mxGeometry relative="1" as="geometry" />
        </mxCell>
        <mxCell id="Uc5iMwLWSerUSL70K_aO-2" value="input a" style="shape=parallelogram;perimeter=parallelogramPerimeter;whiteSpace=wrap;html=1;fixedSize=1;" vertex="1" parent="1">
          <mxGeometry x="250" y="130" width="120" height="60" as="geometry" />
        </mxCell>
        <mxCell id="Uc5iMwLWSerUSL70K_aO-7" value="" style="edgeStyle=orthogonalEdgeStyle;rounded=0;orthogonalLoop=1;jettySize=auto;html=1;" edge="1" parent="1" source="Uc5iMwLWSerUSL70K_aO-3" target="Uc5iMwLWSerUSL70K_aO-5">
          <mxGeometry relative="1" as="geometry" />
        </mxCell>
        <mxCell id="Uc5iMwLWSerUSL70K_aO-14" value="" style="edgeStyle=orthogonalEdgeStyle;rounded=0;orthogonalLoop=1;jettySize=auto;html=1;" edge="1" parent="1" source="Uc5iMwLWSerUSL70K_aO-3" target="Uc5iMwLWSerUSL70K_aO-9">
          <mxGeometry relative="1" as="geometry" />
        </mxCell>
        <mxCell id="Uc5iMwLWSerUSL70K_aO-3" value="is a negative?" style="rhombus;whiteSpace=wrap;html=1;" vertex="1" parent="1">
          <mxGeometry x="250" y="360" width="110" height="110" as="geometry" />
        </mxCell>
        <mxCell id="Uc5iMwLWSerUSL70K_aO-11" value="" style="edgeStyle=orthogonalEdgeStyle;rounded=0;orthogonalLoop=1;jettySize=auto;html=1;" edge="1" parent="1" source="Uc5iMwLWSerUSL70K_aO-4" target="Uc5iMwLWSerUSL70K_aO-3">
          <mxGeometry relative="1" as="geometry" />
        </mxCell>
        <mxCell id="Uc5iMwLWSerUSL70K_aO-4" value="int sum = 0" style="rounded=0;whiteSpace=wrap;html=1;" vertex="1" parent="1">
          <mxGeometry x="245" y="250" width="120" height="60" as="geometry" />
        </mxCell>
        <mxCell id="Uc5iMwLWSerUSL70K_aO-18" value="" style="edgeStyle=orthogonalEdgeStyle;rounded=0;orthogonalLoop=1;jettySize=auto;html=1;" edge="1" parent="1" source="Uc5iMwLWSerUSL70K_aO-5" target="Uc5iMwLWSerUSL70K_aO-6">
          <mxGeometry relative="1" as="geometry" />
        </mxCell>
        <mxCell id="Uc5iMwLWSerUSL70K_aO-5" value="print sum" style="shape=parallelogram;perimeter=parallelogramPerimeter;whiteSpace=wrap;html=1;fixedSize=1;" vertex="1" parent="1">
          <mxGeometry x="245" y="490" width="120" height="60" as="geometry" />
        </mxCell>
        <mxCell id="Uc5iMwLWSerUSL70K_aO-6" value="stop" style="ellipse;whiteSpace=wrap;html=1;" vertex="1" parent="1">
          <mxGeometry x="245" y="610" width="120" height="80" as="geometry" />
        </mxCell>
        <mxCell id="Uc5iMwLWSerUSL70K_aO-8" value="yes" style="text;html=1;strokeColor=none;fillColor=none;align=center;verticalAlign=middle;whiteSpace=wrap;rounded=0;" vertex="1" parent="1">
          <mxGeometry x="305" y="440" width="60" height="30" as="geometry" />
        </mxCell>
        <mxCell id="Uc5iMwLWSerUSL70K_aO-16" value="" style="edgeStyle=orthogonalEdgeStyle;rounded=0;orthogonalLoop=1;jettySize=auto;html=1;" edge="1" parent="1" source="Uc5iMwLWSerUSL70K_aO-9" target="Uc5iMwLWSerUSL70K_aO-10">
          <mxGeometry relative="1" as="geometry" />
        </mxCell>
        <mxCell id="Uc5iMwLWSerUSL70K_aO-9" value="sum = sum + a" style="rounded=0;whiteSpace=wrap;html=1;" vertex="1" parent="1">
          <mxGeometry x="480" y="420" width="120" height="60" as="geometry" />
        </mxCell>
        <mxCell id="Uc5iMwLWSerUSL70K_aO-17" style="edgeStyle=orthogonalEdgeStyle;rounded=0;orthogonalLoop=1;jettySize=auto;html=1;exitX=0;exitY=0.5;exitDx=0;exitDy=0;entryX=1;entryY=0;entryDx=0;entryDy=0;" edge="1" parent="1" source="Uc5iMwLWSerUSL70K_aO-10" target="Uc5iMwLWSerUSL70K_aO-3">
          <mxGeometry relative="1" as="geometry">
            <mxPoint x="310" y="340" as="targetPoint" />
            <Array as="points">
              <mxPoint x="333" y="340" />
            </Array>
          </mxGeometry>
        </mxCell>
        <mxCell id="Uc5iMwLWSerUSL70K_aO-10" value="input a" style="shape=parallelogram;perimeter=parallelogramPerimeter;whiteSpace=wrap;html=1;fixedSize=1;" vertex="1" parent="1">
          <mxGeometry x="490" y="310" width="120" height="60" as="geometry" />
        </mxCell>
        <mxCell id="Uc5iMwLWSerUSL70K_aO-15" value="No" style="text;html=1;strokeColor=none;fillColor=none;align=center;verticalAlign=middle;whiteSpace=wrap;rounded=0;" vertex="1" parent="1">
          <mxGeometry x="350" y="350" width="60" height="30" as="geometry" />
        </mxCell>
      </root>
    </mxGraphModel>
  </diagram>
</mxfile>
